<svg width="50" height="45" viewBox="0 0 50 45" fill="none" xmlns="http://www.w3.org/2000/svg">
<path d="M41.3403 2.01577C41.6689 1.93967 41.9965 2.14631 42.072 2.47733C42.4001 3.91461 42.3483 5.13138 41.9509 6.16435C41.553 7.19851 40.8332 7.98439 39.9385 8.60268C38.2134 9.79482 35.714 10.4382 33.2702 11.0674L33.1625 11.0951C30.6233 11.7489 28.1131 12.4035 26.1994 13.5852C24.3331 14.7376 23.0656 16.3707 22.959 19.0398C22.9454 19.3792 22.6614 19.6432 22.3245 19.6296C21.9876 19.6159 21.7255 19.3297 21.739 18.9904C21.8648 15.8404 23.4125 13.8634 25.5613 12.5366C27.6551 11.2437 30.3481 10.5503 32.8334 9.91029L32.8601 9.90341C35.4141 9.24575 37.7154 8.64736 39.2478 7.58838C39.9946 7.07235 40.5248 6.46752 40.8125 5.71981C41.1006 4.9709 41.1701 4.01464 40.8821 2.75294C40.8066 2.42192 41.0117 2.09188 41.3403 2.01577Z" fill="#F57C00"/>
<path fill-rule="evenodd" clip-rule="evenodd" d="M2 24.3451H42.698C42.5719 24.9863 42.4442 25.6006 42.3142 26.1905C42.321 26.1908 42.3279 26.1911 42.3347 26.1916C44.7825 26.3686 46.4651 27.1066 47.3396 28.3058C48.2355 29.5343 48.1546 31.0602 47.4879 32.4829C46.1687 35.298 42.427 38.091 37.7122 38.8915C37.6008 38.9104 37.4912 38.8976 37.3928 38.8596C36.5598 40.1896 35.6242 41.5255 34.5584 43H10.1396C6.00429 37.2787 3.82885 33.6441 2 24.3451ZM38.1799 37.549C42.269 36.6616 45.332 34.2023 46.3838 31.9579C46.9309 30.7903 46.8996 29.78 46.3557 29.0341C45.7904 28.2589 44.5437 27.5845 42.2474 27.4185C42.1752 27.4133 42.1069 27.3956 42.0443 27.3678C40.9983 31.7487 39.7956 34.7318 38.1799 37.549Z" fill="#F57C00"/>
<path d="M46.5639 7.30621C46.5508 6.96681 46.267 6.70238 45.9301 6.71558C45.5932 6.72879 45.3308 7.01463 45.3439 7.35403C45.3848 8.41301 45.1642 9.18613 44.7862 9.77259C44.4056 10.3631 43.8311 10.8174 43.0763 11.1764C41.5332 11.9105 39.3984 12.1794 37.0718 12.4674L37.0379 12.4716C34.7801 12.7511 32.3573 13.051 30.4323 13.9079C29.4527 14.344 28.5733 14.9354 27.8997 15.7654C27.2221 16.6002 26.7783 17.6449 26.6265 18.9431C26.5871 19.2804 26.8265 19.5861 27.1614 19.6259C27.4962 19.6656 27.7996 19.4244 27.8391 19.087C27.9662 18.0001 28.3278 17.181 28.8448 16.544C29.3657 15.9023 30.07 15.414 30.9258 15.033C32.6621 14.2601 34.9025 13.9752 37.2207 13.6882L37.3163 13.6764C39.5462 13.4005 41.8632 13.1138 43.5976 12.2887C44.4939 11.8623 45.2727 11.2764 45.8102 10.4425C46.3503 9.60456 46.6127 8.5692 46.5639 7.30621Z" fill="#F57C00"/>
<path d="M42.072 2.47733L40.6096 2.81108L40.6096 2.81109L42.072 2.47733ZM41.9509 6.16435L40.5509 5.6257L40.5509 5.6257L41.9509 6.16435ZM39.9385 8.60268L40.7912 9.83669L39.9385 8.60268ZM33.2702 11.0674L32.8962 9.61474L32.8961 9.61475L33.2702 11.0674ZM33.1625 11.0951L32.7885 9.64247L32.7885 9.64248L33.1625 11.0951ZM26.1994 13.5852L25.4113 12.3089L25.4113 12.309L26.1994 13.5852ZM22.959 19.0398L24.4578 19.0997L22.959 19.0398ZM21.739 18.9904L23.2378 19.0502L21.739 18.9904ZM25.5613 12.5366L24.7732 11.2603L25.5613 12.5366ZM32.8334 9.91029L33.2075 11.3629L33.2075 11.3629L32.8334 9.91029ZM32.8601 9.90341L32.4861 8.4508L32.486 8.45081L32.8601 9.90341ZM39.2478 7.58838L40.1006 8.8224V8.8224L39.2478 7.58838ZM40.8125 5.71981L39.4125 5.18116L39.4125 5.18116L40.8125 5.71981ZM40.8821 2.75294L42.3445 2.41918L42.3445 2.41916L40.8821 2.75294ZM42.698 24.3451L44.1698 24.6345L44.5218 22.8451H42.698V24.3451ZM2 24.3451V22.8451H0.17626L0.528194 24.6345L2 24.3451ZM42.3142 26.1905L40.8493 25.8678L40.4635 27.6195L42.2558 27.6894L42.3142 26.1905ZM42.3347 26.1916L42.2265 27.6877L42.2266 27.6877L42.3347 26.1916ZM47.3396 28.3058L48.5516 27.422L47.3396 28.3058ZM47.4879 32.4829L46.1296 31.8465L47.4879 32.4829ZM37.7122 38.8915L37.4611 37.4126L37.4611 37.4126L37.7122 38.8915ZM37.3928 38.8596L37.9331 37.4603L36.7785 37.0145L36.1216 38.0634L37.3928 38.8596ZM34.5584 43V44.5H35.325L35.7741 43.8787L34.5584 43ZM10.1396 43L8.92392 43.8787L9.37299 44.5H10.1396V43ZM46.3838 31.9579L47.742 32.5943V32.5943L46.3838 31.9579ZM38.1799 37.549L36.8787 36.8027L35.1994 39.7307L38.498 39.0148L38.1799 37.549ZM46.3557 29.0341L47.5677 28.1502L47.5677 28.1502L46.3557 29.0341ZM42.2474 27.4185L42.3555 25.9224H42.3555L42.2474 27.4185ZM42.0443 27.3678L42.6542 25.9973L41.0046 25.2633L40.5853 27.0194L42.0443 27.3678ZM45.9301 6.71558L45.8714 5.21674L45.9301 6.71558ZM46.5639 7.30621L48.0628 7.24832V7.24831L46.5639 7.30621ZM45.3439 7.35403L43.845 7.41191V7.41192L45.3439 7.35403ZM44.7862 9.77259L46.047 10.5853V10.5853L44.7862 9.77259ZM43.0763 11.1764L42.4319 9.82191L42.4319 9.82191L43.0763 11.1764ZM37.0718 12.4674L36.8875 10.9788L36.8875 10.9788L37.0718 12.4674ZM37.0379 12.4716L37.2222 13.9602L37.2222 13.9602L37.0379 12.4716ZM30.4323 13.9079L29.8223 12.5376L29.8223 12.5376L30.4323 13.9079ZM27.8997 15.7654L29.0643 16.7107L29.0643 16.7107L27.8997 15.7654ZM26.6265 18.9431L25.1367 18.7689L26.6265 18.9431ZM27.1614 19.6259L26.9846 21.1154H26.9846L27.1614 19.6259ZM27.8391 19.087L26.3492 18.9128V18.9128L27.8391 19.087ZM28.8448 16.544L27.6802 15.5987H27.6802L28.8448 16.544ZM30.9258 15.033L30.3158 13.6626L30.3158 13.6626L30.9258 15.033ZM37.2207 13.6882L37.0365 12.1996L37.0364 12.1996L37.2207 13.6882ZM37.3163 13.6764L37.1321 12.1877L37.1321 12.1877L37.3163 13.6764ZM43.5976 12.2887L44.242 13.6432L44.242 13.6432L43.5976 12.2887ZM45.8102 10.4425L44.5494 9.62979V9.62979L45.8102 10.4425ZM43.5344 2.14358C43.2762 1.01227 42.1485 0.288864 41.0018 0.554462L41.6788 3.47709C41.1893 3.59047 40.7167 3.28035 40.6096 2.81108L43.5344 2.14358ZM43.3508 6.703C43.8808 5.32544 43.9109 3.79322 43.5344 2.14356L40.6096 2.81109C40.8892 4.036 40.8158 4.93732 40.5509 5.6257L43.3508 6.703ZM40.7912 9.83669C41.868 9.0926 42.8189 8.08537 43.3508 6.70299L40.5509 5.6257C40.287 6.31165 39.7984 6.87618 39.0857 7.36866L40.7912 9.83669ZM33.6441 12.52C36.0032 11.9127 38.7996 11.213 40.7912 9.83669L39.0857 7.36866C37.6271 8.37663 35.4248 8.96378 32.8962 9.61474L33.6441 12.52ZM33.5365 12.5477L33.6442 12.52L32.8961 9.61475L32.7885 9.64247L33.5365 12.5477ZM26.9874 14.8615C28.6699 13.8227 30.9393 13.2165 33.5366 12.5477L32.7885 9.64248C30.3073 10.2814 27.5563 10.9844 25.4113 12.3089L26.9874 14.8615ZM24.4578 19.0997C24.5017 18.0014 24.7781 17.1885 25.185 16.5487C25.5974 15.9003 26.1941 15.3514 26.9874 14.8615L25.4113 12.309C24.3384 12.9714 23.3682 13.8152 22.6536 14.9387C21.9336 16.0709 21.5229 17.4091 21.4602 18.9799L24.4578 19.0997ZM22.2637 21.1283C23.4391 21.176 24.4116 20.2567 24.4578 19.0997L21.4602 18.9799C21.4793 18.5016 21.8836 18.1105 22.3852 18.1308L22.2637 21.1283ZM20.2402 18.9305C20.1941 20.0869 21.0891 21.0807 22.2637 21.1283L22.3852 18.1308C22.8861 18.1511 23.2569 18.5726 23.2378 19.0502L20.2402 18.9305ZM24.7732 11.2603C22.2766 12.8019 20.3893 15.1984 20.2402 18.9305L23.2378 19.0502C23.3404 16.4824 24.5484 14.9249 26.3494 13.8129L24.7732 11.2603ZM32.4594 8.45768C30.0289 9.08352 27.0975 9.8251 24.7732 11.2603L26.3494 13.8129C28.2128 12.6623 30.6673 12.017 33.2075 11.3629L32.4594 8.45768ZM32.486 8.45081L32.4593 8.45769L33.2075 11.3629L33.2342 11.356L32.486 8.45081ZM38.3951 6.35437C37.1315 7.22757 35.1354 7.7686 32.4861 8.4508L33.2342 11.356C35.6929 10.7229 38.2993 10.0672 40.1006 8.8224L38.3951 6.35437ZM39.4125 5.18116C39.2586 5.58111 38.9593 5.96449 38.3951 6.35437L40.1006 8.8224C41.0299 8.18021 41.7909 7.35393 42.2124 6.25845L39.4125 5.18116ZM39.4197 3.0867C39.6591 4.13555 39.5682 4.77648 39.4125 5.18116L42.2124 6.25846C42.633 5.16532 42.6811 3.89372 42.3445 2.41918L39.4197 3.0867ZM41.0018 0.554462C39.8589 0.819184 39.1624 1.95899 39.4198 3.08672L42.3445 2.41916C42.4508 2.88485 42.1645 3.36458 41.6788 3.47709L41.0018 0.554462ZM42.698 22.8451H2V25.8451H42.698V22.8451ZM43.7791 26.5132C43.9117 25.9114 44.0417 25.286 44.1698 24.6345L41.2262 24.0556C41.1021 24.6866 40.9767 25.2898 40.8493 25.8678L43.7791 26.5132ZM42.4429 24.6955C42.4191 24.6938 42.3956 24.6925 42.3727 24.6916L42.2558 27.6894C42.2464 27.689 42.2367 27.6885 42.2265 27.6877L42.4429 24.6955ZM48.5516 27.422C47.2981 25.7031 45.0788 24.8861 42.4429 24.6955L42.2266 27.6877C44.4863 27.8511 45.6321 28.5101 46.1277 29.1897L48.5516 27.422ZM48.8461 33.1194C49.6563 31.3906 49.8768 29.2392 48.5516 27.422L46.1277 29.1897C46.5942 29.8294 46.6529 30.7298 46.1296 31.8465L48.8461 33.1194ZM37.9633 40.3703C43.0398 39.5084 47.2704 36.4821 48.8461 33.1194L46.1296 31.8465C45.0671 34.1139 41.8143 36.6735 37.4611 37.4126L37.9633 40.3703ZM36.8526 40.2589C37.1957 40.3914 37.5783 40.4357 37.9633 40.3703L37.4611 37.4126C37.6232 37.3851 37.7868 37.4038 37.9331 37.4603L36.8526 40.2589ZM35.7741 43.8787C36.8455 42.3964 37.8043 41.0285 38.664 39.6558L36.1216 38.0634C35.3153 39.3506 34.4029 40.6546 33.3427 42.1213L35.7741 43.8787ZM10.1396 44.5H34.5584V41.5H10.1396V44.5ZM0.528194 24.6345C1.45729 29.3587 2.48837 32.7157 3.84358 35.6442C5.19653 38.5677 6.84546 41.0031 8.92392 43.8787L11.3553 42.1213C9.29844 39.2756 7.79199 37.033 6.56617 34.3842C5.34263 31.7403 4.37156 28.6305 3.47181 24.0556L0.528194 24.6345ZM45.0255 31.3214C44.2194 33.0415 41.6149 35.2686 37.8618 36.0831L38.498 39.0148C42.9231 38.0546 46.4446 35.3632 47.742 32.5943L45.0255 31.3214ZM45.1437 29.9179C45.2622 30.0804 45.4255 30.4677 45.0255 31.3214L47.742 32.5943C48.4363 31.1128 48.537 29.4795 47.5677 28.1502L45.1437 29.9179ZM42.1392 28.9146C44.2449 29.0668 44.9565 29.6611 45.1437 29.9179L47.5677 28.1502C46.6244 26.8567 44.8425 26.1021 42.3555 25.9224L42.1392 28.9146ZM41.4345 28.7382C41.6532 28.8356 41.8911 28.8966 42.1392 28.9146L42.3555 25.9224C42.4593 25.9299 42.5605 25.9557 42.6542 25.9973L41.4345 28.7382ZM39.4811 38.2952C41.178 35.3366 42.4289 32.216 43.5033 27.7161L40.5853 27.0194C39.5677 31.2815 38.4133 34.1271 36.8787 36.8027L39.4811 38.2952ZM45.9889 8.21443C45.4873 8.2341 45.0835 7.84241 45.065 7.3641L48.0628 7.24831C48.0181 6.09122 47.0468 5.17066 45.8714 5.21674L45.9889 8.21443ZM46.8427 7.29615C46.8612 7.7738 46.4898 8.1948 45.9889 8.21443L45.8714 5.21674C44.6967 5.26278 43.8003 6.25546 43.845 7.41191L46.8427 7.29615ZM46.047 10.5853C46.6221 9.69306 46.8932 8.602 46.8427 7.29614L43.845 7.41192C43.8763 8.22402 43.7064 8.6792 43.5254 8.95992L46.047 10.5853ZM43.7206 12.531C44.6506 12.0886 45.4751 11.4725 46.047 10.5853L43.5254 8.95992C43.3361 9.25358 43.0116 9.54614 42.4319 9.82191L43.7206 12.531ZM37.2561 13.956C39.4978 13.6785 41.9104 13.3921 43.7206 12.531L42.4319 9.82191C41.156 10.4289 39.2989 10.6802 36.8875 10.9788L37.2561 13.956ZM37.2222 13.9602L37.2561 13.956L36.8875 10.9788L36.8536 10.983L37.2222 13.9602ZM31.0424 15.2783C32.7233 14.53 34.9048 14.2471 37.2222 13.9602L36.8536 10.983C34.6554 11.2551 31.9914 11.572 29.8223 12.5376L31.0424 15.2783ZM29.0643 16.7107C29.5511 16.1109 30.2157 15.6463 31.0424 15.2783L29.8223 12.5376C28.6898 13.0417 27.5955 13.7599 26.735 14.8201L29.0643 16.7107ZM28.1163 19.1173C28.2383 18.0745 28.5827 17.3041 29.0643 16.7107L26.735 14.8201C25.8615 15.8963 25.3183 17.2153 25.1367 18.7689L28.1163 19.1173ZM27.3381 18.1363C27.835 18.1953 28.1718 18.6429 28.1163 19.1173L25.1367 18.7689C25.0023 19.9179 25.818 20.9769 26.9846 21.1154L27.3381 18.1363ZM26.3492 18.9128C26.4049 18.4364 26.8392 18.0771 27.3381 18.1363L26.9846 21.1154C28.1532 21.2541 29.1943 20.4123 29.3289 19.2613L26.3492 18.9128ZM27.6802 15.5987C26.9674 16.477 26.5062 17.5703 26.3492 18.9128L29.3289 19.2613C29.4261 18.4299 29.6883 17.8851 30.0095 17.4893L27.6802 15.5987ZM30.3158 13.6626C29.3069 14.1118 28.3878 14.7269 27.6802 15.5987L30.0095 17.4893C30.3436 17.0777 30.8331 16.7162 31.5359 16.4033L30.3158 13.6626ZM37.0364 12.1996C34.7819 12.4787 32.2972 12.7806 30.3158 13.6626L31.5359 16.4033C33.0269 15.7396 35.023 15.4717 37.405 15.1769L37.0364 12.1996ZM37.1321 12.1877L37.0365 12.1996L37.4049 15.1769L37.5005 15.165L37.1321 12.1877ZM42.9532 10.9341C41.4837 11.6332 39.4373 11.9025 37.1321 12.1877L37.5005 15.165C39.6551 14.8984 42.2427 14.5943 44.242 13.6432L42.9532 10.9341ZM44.5494 9.62979C44.2034 10.1666 43.6748 10.5909 42.9532 10.9341L44.242 13.6432C45.313 13.1337 46.342 12.3861 47.071 11.2551L44.5494 9.62979ZM45.065 7.36409C45.1043 8.38075 44.8922 9.09801 44.5494 9.62979L47.071 11.2551C47.8084 10.1111 48.1211 8.75764 48.0628 7.24832L45.065 7.36409Z" fill="#453030"/>
</svg>
